HIERARCHY
ROOT Hips
{
	OFFSET 0.000000 71.427986 0.000000
	CHANNELS 6 Xposition Yposition Zposition Xrotation Yrotation Zrotation
	JOINT Pelvis
	{
		OFFSET 0.000000 0.000000 0.000000
		CHANNELS 3 Xrotation Yrotation Zrotation
		JOINT LeftUpLeg
		{
			OFFSET 6.797100 -2.508499 -1.318700
			CHANNELS 3 Xrotation Yrotation Zrotation
			JOINT LeftLeg
			{
				OFFSET 0.069008 -29.241863 0.690200
				CHANNELS 3 Xrotation Yrotation Zrotation
				JOINT LeftFoot
				{
					OFFSET -0.069008 -29.568123 -0.266800
					CHANNELS 3 Xrotation Yrotation Zrotation
					JOINT LeftToeBase
					{
						OFFSET 3.145500 -8.631000 16.059900
						CHANNELS 3 Xrotation Yrotation Zrotation
						End Site
						{
							OFFSET 0.000000 18.501587 0.000000
						}
					}
				}
			}
			JOINT Left_ShortSleeve
			{
				OFFSET 0.265923 -10.480953 1.153800
				CHANNELS 3 Xrotation Yrotation Zrotation
				End Site
				{
					OFFSET 1.725763 19.823879 0.000000
				}
			}
		}
		JOINT RightUpLeg
		{
			OFFSET -6.797100 -2.508499 -1.318700
			CHANNELS 3 Xrotation Yrotation Zrotation
			JOINT RightLeg
			{
				OFFSET -0.082453 -29.241932 0.688000
				CHANNELS 3 Xrotation Yrotation Zrotation
				JOINT RightFoot
				{
					OFFSET 0.082453 -29.568058 -0.264600
					CHANNELS 3 Xrotation Yrotation Zrotation
					JOINT RightToeBase
					{
						OFFSET -3.115300 -8.682800 16.113400
						CHANNELS 3 Xrotation Yrotation Zrotation
						End Site
						{
							OFFSET 0.000000 18.567114 0.000000
						}
					}
				}
			}
			JOINT Right_ShortSleeve
			{
				OFFSET -0.265923 -10.480953 1.153800
				CHANNELS 3 Xrotation Yrotation Zrotation
				End Site
				{
					OFFSET -1.725766 19.823910 0.000000
				}
			}
		}
	}
	JOINT Spine
	{
		OFFSET 0.000000 13.368103 0.470500
		CHANNELS 3 Xrotation Yrotation Zrotation
		JOINT Spine1
		{
			OFFSET 0.147000 13.837402 0.538800
			CHANNELS 3 Xrotation Yrotation Zrotation
			JOINT Spine2
			{
				OFFSET 0.168000 16.242897 -1.435500
				CHANNELS 3 Xrotation Yrotation Zrotation
				JOINT Neck
				{
					OFFSET 0.217200 18.631500 -1.679100
					CHANNELS 3 Xrotation Yrotation Zrotation
					JOINT Head
					{
						OFFSET 0.000000 6.599396 1.385900
						CHANNELS 3 Xrotation Yrotation Zrotation
						JOINT Hat
						{
							OFFSET -0.532200 27.220596 -10.096100
							CHANNELS 3 Xrotation Yrotation Zrotation
							End Site
							{
								OFFSET 0.000000 22.029861 0.000000
							}
						}
						JOINT HairD
						{
							OFFSET -10.777400 17.437393 -1.325900
							CHANNELS 3 Xrotation Yrotation Zrotation
							JOINT HairD1
							{
								OFFSET -3.290299 -11.051193 1.062200
								CHANNELS 3 Xrotation Yrotation Zrotation
								End Site
								{
									OFFSET 0.000000 11.579437 0.000000
								}
							}
						}
						JOINT HairB
						{
							OFFSET -10.777400 17.437393 1.467900
							CHANNELS 3 Xrotation Yrotation Zrotation
							JOINT HairB1
							{
								OFFSET -1.561200 -12.956299 3.590200
								CHANNELS 3 Xrotation Yrotation Zrotation
								End Site
								{
									OFFSET 0.000000 13.534866 0.000000
								}
							}
						}
						JOINT HairA
						{
							OFFSET 9.713100 17.437393 1.467900
							CHANNELS 3 Xrotation Yrotation Zrotation
							JOINT HairA1
							{
								OFFSET 1.561200 -12.956299 3.590200
								CHANNELS 3 Xrotation Yrotation Zrotation
								End Site
								{
									OFFSET 0.000000 13.534866 0.000000
								}
							}
						}
						JOINT HairC
						{
							OFFSET 9.713100 17.437393 -1.325900
							CHANNELS 3 Xrotation Yrotation Zrotation
							JOINT HairC1
							{
								OFFSET 3.290300 -11.051193 1.062200
								CHANNELS 3 Xrotation Yrotation Zrotation
								End Site
								{
									OFFSET 0.000000 11.579437 0.000000
								}
							}
						}
					}
				}
				JOINT LeftShoulder
				{
					OFFSET 5.101800 15.108002 -2.763700
					CHANNELS 3 Xrotation Yrotation Zrotation
					JOINT LeftArm
					{
						OFFSET 9.825497 2.506317 -1.597400
						CHANNELS 3 Xrotation Yrotation Zrotation
						JOINT LeftForeArm
						{
							OFFSET 21.966244 0.000000 0.000000
							CHANNELS 3 Xrotation Yrotation Zrotation
							JOINT LeftHand
							{
								OFFSET 33.879036 0.000000 0.000000
								CHANNELS 3 Xrotation Yrotation Zrotation
								JOINT LeftHandThumb1
								{
									OFFSET 6.715286 -2.359680 3.363841
									CHANNELS 3 Xrotation Yrotation Zrotation
									JOINT LeftHandThumb2
									{
										OFFSET 2.507072 -1.447464 1.447461
										CHANNELS 3 Xrotation Yrotation Zrotation
										JOINT LeftHandThumb3
										{
											OFFSET 2.898338 -1.673355 1.673357
											CHANNELS 3 Xrotation Yrotation Zrotation
											End Site
											{
												OFFSET -0.295959 3.727692 -0.131651
											}
										}
									}
								}
								JOINT LeftHandIndex1
								{
									OFFSET 14.190811 -0.254547 3.840278
									CHANNELS 3 Xrotation Yrotation Zrotation
									JOINT LeftHandIndex2
									{
										OFFSET 3.551727 0.000000 -0.000000
										CHANNELS 3 Xrotation Yrotation Zrotation
										JOINT LeftHandIndex3
										{
											OFFSET 2.894196 0.000000 0.000000
											CHANNELS 3 Xrotation Yrotation Zrotation
											End Site
											{
												OFFSET -1.000603 2.690872 0.366626
											}
										}
									}
								}
								JOINT LeftHandMiddle1
								{
									OFFSET 13.776489 0.000000 0.000000
									CHANNELS 3 Xrotation Yrotation Zrotation
									JOINT LeftHandMiddle2
									{
										OFFSET 3.438232 0.000000 0.000000
										CHANNELS 3 Xrotation Yrotation Zrotation
										JOINT LeftHandMiddle3
										{
											OFFSET 3.691551 0.000000 0.000000
											CHANNELS 3 Xrotation Yrotation Zrotation
											End Site
											{
												OFFSET -1.082298 3.499527 0.457670
											}
										}
									}
								}
								JOINT LeftHandRing1
								{
									OFFSET 13.966164 -0.268127 -3.067488
									CHANNELS 3 Xrotation Yrotation Zrotation
									JOINT LeftHandRing2
									{
										OFFSET 3.162567 0.000000 0.000000
										CHANNELS 3 Xrotation Yrotation Zrotation
										JOINT LeftHandRing3
										{
											OFFSET 3.324348 0.000000 0.000000
											CHANNELS 3 Xrotation Yrotation Zrotation
											End Site
											{
												OFFSET -0.861900 3.184998 0.405154
											}
										}
									}
								}
								JOINT LeftHandPinky1
								{
									OFFSET 13.131393 -0.168503 -5.746925
									CHANNELS 3 Xrotation Yrotation Zrotation
									JOINT LeftHandPinky2
									{
										OFFSET 2.849182 0.000000 0.000000
										CHANNELS 3 Xrotation Yrotation Zrotation
										JOINT LeftHandPinky3
										{
											OFFSET 2.805038 0.000000 0.000000
											CHANNELS 3 Xrotation Yrotation Zrotation
											End Site
											{
												OFFSET -0.882500 2.642609 0.325652
											}
										}
									}
								}
							}
							JOINT Left_Sleeve
							{
								OFFSET 6.592125 -0.646545 0.805568
								CHANNELS 3 Xrotation Yrotation Zrotation
								End Site
								{
									OFFSET -0.000179 20.275787 -0.000000
								}
							}
						}
					}
				}
				JOINT RightShoulder
				{
					OFFSET -5.731700 15.108002 -2.763700
					CHANNELS 3 Xrotation Yrotation Zrotation
					JOINT RightArm
					{
						OFFSET -9.825497 2.506317 -1.597400
						CHANNELS 3 Xrotation Yrotation Zrotation
						JOINT RightForeArm
						{
							OFFSET -21.966242 0.000000 0.000000
							CHANNELS 3 Xrotation Yrotation Zrotation
							JOINT RightHand
							{
								OFFSET -33.879032 0.000000 0.000000
								CHANNELS 3 Xrotation Yrotation Zrotation
								JOINT RightHandThumb1
								{
									OFFSET -6.715286 -2.359680 3.363841
									CHANNELS 3 Xrotation Yrotation Zrotation
									JOINT RightHandThumb2
									{
										OFFSET -2.507072 -1.447464 1.447461
										CHANNELS 3 Xrotation Yrotation Zrotation
										JOINT RightHandThumb3
										{
											OFFSET -2.898338 -1.673355 1.673357
											CHANNELS 3 Xrotation Yrotation Zrotation
											End Site
											{
												OFFSET 0.295959 3.727692 -0.131651
											}
										}
									}
								}
								JOINT RightHandIndex1
								{
									OFFSET -14.190811 -0.254547 3.840278
									CHANNELS 3 Xrotation Yrotation Zrotation
									JOINT RightHandIndex2
									{
										OFFSET -3.551727 0.000000 -0.000000
										CHANNELS 3 Xrotation Yrotation Zrotation
										JOINT RightHandIndex3
										{
											OFFSET -2.894196 0.000000 0.000000
											CHANNELS 3 Xrotation Yrotation Zrotation
											End Site
											{
												OFFSET 1.000603 2.690872 0.366626
											}
										}
									}
								}
								JOINT RightHandMiddle1
								{
									OFFSET -13.776489 0.000000 0.000000
									CHANNELS 3 Xrotation Yrotation Zrotation
									JOINT RightHandMiddle2
									{
										OFFSET -3.438232 0.000000 0.000000
										CHANNELS 3 Xrotation Yrotation Zrotation
										JOINT RightHandMiddle3
										{
											OFFSET -3.691551 0.000000 0.000000
											CHANNELS 3 Xrotation Yrotation Zrotation
											End Site
											{
												OFFSET 1.082298 3.499527 0.457670
											}
										}
									}
								}
								JOINT RightHandRing1
								{
									OFFSET -13.966164 -0.268127 -3.067488
									CHANNELS 3 Xrotation Yrotation Zrotation
									JOINT RightHandRing2
									{
										OFFSET -3.162567 0.000000 0.000000
										CHANNELS 3 Xrotation Yrotation Zrotation
										JOINT RightHandRing3
										{
											OFFSET -3.324348 0.000000 0.000000
											CHANNELS 3 Xrotation Yrotation Zrotation
											End Site
											{
												OFFSET 0.861900 3.184998 0.405154
											}
										}
									}
								}
								JOINT RightHandPinky1
								{
									OFFSET -13.131393 -0.168503 -5.746925
									CHANNELS 3 Xrotation Yrotation Zrotation
									JOINT RightHandPinky2
									{
										OFFSET -2.849182 0.000000 0.000000
										CHANNELS 3 Xrotation Yrotation Zrotation
										JOINT RightHandPinky3
										{
											OFFSET -2.805038 0.000000 0.000000
											CHANNELS 3 Xrotation Yrotation Zrotation
											End Site
											{
												OFFSET 0.882500 2.642609 0.325652
											}
										}
									}
								}
							}
							JOINT Right_Sleeve
							{
								OFFSET -6.592125 -0.646545 0.805568
								CHANNELS 3 Xrotation Yrotation Zrotation
								End Site
								{
									OFFSET 0.000179 20.275787 -0.000000
								}
							}
						}
					}
				}
				JOINT Bind_Right_JacketString
				{
					OFFSET -3.534800 11.969597 7.200700
					CHANNELS 3 Xrotation Yrotation Zrotation
					JOINT Bind_Right_JacketString1
					{
						OFFSET -0.319900 -6.102600 2.794100
						CHANNELS 3 Xrotation Yrotation Zrotation
						End Site
						{
							OFFSET 0.000000 6.719452 0.000000
						}
					}
				}
				JOINT Bind_Left_JacketString
				{
					OFFSET 2.904800 11.969597 7.200700
					CHANNELS 3 Xrotation Yrotation Zrotation
					JOINT Bind_Left_JacketString1
					{
						OFFSET 0.364800 -5.904503 3.186800
						CHANNELS 3 Xrotation Yrotation Zrotation
						End Site
						{
							OFFSET 0.000000 6.719513 0.000000
						}
					}
				}
				JOINT HairE
				{
					OFFSET 5.915200 17.612701 -11.592200
					CHANNELS 3 Xrotation Yrotation Zrotation
					JOINT HairE1
					{
						OFFSET 0.289200 -7.171898 -1.284500
						CHANNELS 3 Xrotation Yrotation Zrotation
						End Site
						{
							OFFSET 0.000000 7.291756 0.000000
						}
					}
				}
				JOINT HairF
				{
					OFFSET -0.864800 17.612701 -11.592200
					CHANNELS 3 Xrotation Yrotation Zrotation
					JOINT HairF1
					{
						OFFSET 0.000000 -14.087097 -2.127501
						CHANNELS 3 Xrotation Yrotation Zrotation
						End Site
						{
							OFFSET 0.000000 14.246841 0.000000
						}
					}
				}
				JOINT HairG
				{
					OFFSET -8.087700 17.612701 -11.592200
					CHANNELS 3 Xrotation Yrotation Zrotation
					JOINT HairG1
					{
						OFFSET -0.293600 -6.081398 -0.910100
						CHANNELS 3 Xrotation Yrotation Zrotation
						End Site
						{
							OFFSET 0.000000 6.156120 0.000000
						}
					}
				}
			}
		}
	}
	JOINT Pouch
	{
		OFFSET 0.000000 4.394501 10.847300
		CHANNELS 3 Xrotation Yrotation Zrotation
		End Site
		{
			OFFSET 0.000000 21.880577 0.000000
		}
	}
	JOINT Bag
	{
		OFFSET -13.229000 4.813004 -0.593300
		CHANNELS 3 Xrotation Yrotation Zrotation
		End Site
		{
			OFFSET 0.000000 21.880577 0.000000
		}
	}
	JOINT OccupyGuyFacialAnim_Joint
	{
		OFFSET 1.000000 -70.206398 -1.655000
		CHANNELS 3 Xrotation Yrotation Zrotation
		End Site
		{
			OFFSET 0.000000 21.880577 0.000000
		}
	}
}
MOTION
Frames: 4
Frame Time: 0.033333
-57.477978 63.455723 -18.480495 -122.584397 -41.678234 -130.624185 -0.000003 0.000002 0.000001 14.076125 27.521771 13.671339 56.721053 -0.609002 3.492747 -33.365484 2.531985 -6.168760 -0.000000 -0.000000 -0.000000 -0.000001 0.000000 -0.000000 6.411797 -13.914846 -39.017377 71.685349 -9.960272 -10.854746 16.786874 -0.445870 16.136926 0.000002 0.000002 0.000001 0.000002 0.000001 -0.000002 0.614922 1.116723 0.186267 -0.292344 -0.970688 2.006990 -0.306051 -0.901883 2.031716 11.010501 2.671302 -3.253987 33.383485 9.379847 -7.496392 0.000000 -0.000001 -0.000000 0.000000 -0.000001 -0.000000 0.000000 -0.000001 -0.000000 0.000000 -0.000001 -0.000000 0.000001 0.000001 0.000000 0.000000 -0.000001 -0.000000 0.000001 0.000001 0.000000 0.000000 -0.000001 -0.000000 0.000000 -0.000001 -0.000000 3.681215 -11.154595 21.404307 -7.231597 -19.975875 -83.236736 -0.001050 -86.606683 -0.001144 33.055213 25.982229 -9.188285 1.517261 13.006209 9.166407 0.252582 5.691544 8.259469 0.000001 -0.000000 -0.000001 -0.431286 -2.808704 -7.757849 0.689356 3.007867 -25.811362 0.000002 -0.000002 -0.000000 0.136655 1.367784 -11.497246 0.846392 3.312501 -28.659443 -0.000001 -0.000001 0.000002 0.725826 3.833126 -13.410055 0.996851 3.573578 -31.164312 -0.000001 -0.000002 -0.000002 1.935229 8.409544 -14.001474 0.363714 -1.849637 -19.115160 -0.000002 0.000002 0.000003 0.000001 -0.000002 -0.000000 3.271347 9.749971 -2.984759 -14.078479 7.386364 65.770064 0.000048 77.533364 -0.000023 33.334072 -7.031484 36.681131 -5.100323 -1.614318 -7.407030 8.566483 -10.593415 -7.325793 0.000001 -0.000001 0.000000 -1.283753 7.717495 9.412124 0.432907 -2.419461 20.286266 0.000003 -0.000000 0.000002 -0.839038 4.173455 10.297502 1.060879 -3.696644 32.015733 -0.000001 0.000000 -0.000002 1.810956 -6.497468 18.442686 0.695222 -3.035536 25.794329 -0.000002 0.000000 -0.000001 6.159497 -16.684358 21.217370 0.271070 -1.926188 16.019379 -0.000001 0.000001 0.000001 0.000001 -0.000000 -0.000001 -0.000000 -0.000002 -0.000001 -0.000001 0.000000 -0.000001 -0.000000 -0.000002 -0.000001 -0.000000 -0.000002 -0.000001 -0.000000 -0.000002 -0.000001 -0.000001 0.000000 -0.000000 -0.000000 -0.000002 -0.000001 -0.000000 -0.000002 -0.000001 -0.000000 -0.000002 -0.000001 -0.000001 0.000000 -0.000000 -0.000003 0.000002 0.000001 -0.000003 0.000002 0.000001 -0.000003 0.000002 0.000001 
-58.234337 63.424221 -18.521318 -120.425592 -41.491890 -128.613459 -0.000002 -0.000003 -0.000001 15.859841 27.729904 13.450094 56.727559 -1.540537 4.146390 -34.098292 2.492180 -5.921592 -0.000000 -0.000000 0.000000 0.000002 -0.000000 -0.000000 5.915162 -13.917561 -39.345503 74.283737 -3.209636 -10.377790 13.361001 -0.207499 17.239288 0.000000 -0.000001 0.000000 0.000000 -0.000001 0.000000 0.473525 0.810881 0.332078 -0.439562 -1.376418 1.998239 -0.459515 -1.310042 2.030884 11.597076 2.690608 -2.750549 29.400071 11.233497 -8.883763 -0.000000 0.000000 -0.000000 -0.000000 0.000000 -0.000000 -0.000000 0.000000 -0.000000 -0.000000 0.000000 -0.000000 -0.000000 0.000000 -0.000000 -0.000000 0.000000 -0.000000 -0.000000 0.000000 -0.000000 -0.000000 0.000000 -0.000000 -0.000000 0.000000 -0.000000 4.203303 -12.655889 22.241512 -4.515986 -15.833700 -84.869752 -0.001899 -92.963977 -0.001847 38.546681 23.831818 -13.153197 1.517259 13.006225 9.166407 0.252590 5.691543 8.259471 -0.000002 -0.000001 -0.000005 -0.431286 -2.808696 -7.757842 0.689355 3.007861 -25.811360 -0.000000 0.000003 0.000000 0.136656 1.367790 -11.497246 0.846397 3.312497 -28.659443 -0.000001 0.000001 -0.000001 0.725823 3.833135 -13.410047 0.996850 3.573548 -31.164323 -0.000001 -0.000001 0.000003 1.935229 8.409557 -14.001474 0.363719 -1.849617 -19.115164 0.000000 0.000001 0.000001 0.000001 -0.000001 -0.000000 3.688023 11.040876 -2.246189 -13.540412 4.694748 68.353562 -0.054978 90.125186 0.052141 36.471298 -9.909166 32.702171 -5.100328 -1.614319 -7.407044 8.566486 -10.593417 -7.325793 -0.000000 -0.000001 0.000000 -1.283748 7.717493 9.412128 0.432909 -2.419457 20.286259 -0.000001 -0.000000 0.000002 -0.839035 4.173456 10.297502 1.060881 -3.696649 32.015733 0.000000 0.000000 -0.000001 1.810958 -6.497469 18.442682 0.695224 -3.035536 25.794327 -0.000003 -0.000000 -0.000002 6.159506 -16.684363 21.217378 0.271065 -1.926181 16.019386 -0.000000 0.000001 -0.000001 0.000002 0.000001 -0.000001 -0.000000 0.000000 0.000000 -0.000001 -0.000002 -0.000001 -0.000000 0.000000 0.000001 -0.000000 0.000000 0.000001 -0.000000 0.000000 0.000000 -0.000001 -0.000002 -0.000000 -0.000000 0.000000 0.000001 -0.000000 0.000000 0.000001 -0.000000 0.000000 0.000000 -0.000001 -0.000002 -0.000000 -0.000002 -0.000003 -0.000001 -0.000002 -0.000003 -0.000001 -0.000002 -0.000003 -0.000001 
-59.088642 63.496014 -18.616913 -118.072196 -42.231517 -126.667279 0.000003 0.000000 -0.000000 16.684831 27.650877 13.993447 56.640392 -2.768398 4.786821 -34.754861 2.415463 -5.602417 0.000000 -0.000000 -0.000000 -0.000001 -0.000000 -0.000000 6.084698 -16.126056 -38.361249 74.509284 5.564518 -10.089031 3.250704 -0.318043 18.446958 -0.000001 0.000001 -0.000000 -0.000000 0.000001 0.000001 0.360397 0.295558 0.626990 -0.562216 -1.584283 1.930496 -0.585137 -1.521368 1.965776 10.052773 2.829411 -2.351378 22.858746 12.800580 -8.355355 -0.000000 -0.000000 -0.000001 -0.000000 -0.000000 -0.000001 -0.000000 -0.000000 -0.000001 -0.000000 -0.000000 -0.000001 0.000001 -0.000000 -0.000001 -0.000000 -0.000000 -0.000001 0.000001 -0.000000 -0.000001 -0.000000 -0.000000 -0.000001 -0.000000 -0.000000 -0.000001 4.746449 -14.177800 22.053938 -2.030810 -11.782489 -85.119102 -0.000078 -101.081226 -0.000072 44.353520 23.227260 -19.887967 1.517258 13.006202 9.166408 0.252589 5.691540 8.259476 0.000001 0.000001 0.000000 -0.431285 -2.808704 -7.757848 0.689353 3.007824 -25.811358 0.000002 -0.000001 -0.000000 0.136652 1.367771 -11.497252 0.846395 3.312508 -28.659436 0.000000 0.000001 0.000001 0.725820 3.833119 -13.410051 0.996855 3.573569 -31.164319 -0.000000 0.000000 0.000003 1.935227 8.409539 -14.001472 0.363718 -1.849611 -19.115162 -0.000000 0.000003 0.000003 0.000002 -0.000000 -0.000004 3.856417 11.579662 -2.033448 -12.633914 3.043258 70.050803 0.000052 100.401739 -0.000017 38.651388 -11.543751 27.718745 -5.100324 -1.614321 -7.407039 8.566470 -10.593418 -7.325799 0.000001 0.000002 -0.000003 -1.283754 7.717497 9.412130 0.432912 -2.419457 20.286266 -0.000002 0.000001 -0.000001 -0.839033 4.173458 10.297494 1.060885 -3.696642 32.015733 0.000001 -0.000000 -0.000003 1.810954 -6.497469 18.442677 0.695222 -3.035537 25.794326 -0.000001 -0.000000 -0.000003 6.159500 -16.684359 21.217378 0.271066 -1.926185 16.019377 -0.000001 -0.000001 0.000002 0.000002 0.000001 -0.000001 -0.000000 0.000003 0.000001 0.000001 -0.000002 0.000000 -0.000000 0.000003 0.000001 -0.000000 0.000003 0.000001 -0.000000 0.000003 0.000001 0.000001 -0.000002 0.000000 -0.000000 0.000003 0.000001 -0.000000 0.000003 0.000001 -0.000000 0.000003 0.000001 0.000001 -0.000002 0.000000 0.000003 0.000000 -0.000000 0.000003 0.000000 -0.000000 0.000003 0.000000 -0.000000 
-59.880894 63.521954 -18.881779 -115.796227 -42.971015 -124.616856 -0.000000 0.000001 0.000000 17.269724 27.580044 14.746380 56.652335 -4.133558 5.412770 -35.344566 2.373745 -5.410651 -0.000000 -0.000000 0.000000 -0.000003 0.000000 -0.000000 6.170600 -19.278315 -36.920594 71.543527 8.899366 -9.971435 -5.816975 1.384585 19.476819 -0.000000 0.000000 -0.000002 -0.000003 0.000001 -0.000001 0.350576 -0.046013 0.862988 -0.583421 -1.539637 1.891036 -0.605348 -1.477552 1.925367 7.363113 3.080284 -2.464629 16.185706 13.650862 -6.909544 -0.000000 0.000001 -0.000000 -0.000000 0.000001 -0.000000 -0.000000 0.000001 0.000000 -0.000000 0.000001 0.000000 -0.000000 -0.000001 0.000000 -0.000000 0.000001 0.000000 -0.000000 -0.000001 0.000000 -0.000000 0.000001 -0.000000 -0.000000 0.000001 -0.000000 4.828939 -14.408098 21.316655 -1.863131 -8.768722 -84.242993 -0.000148 -107.774955 -0.000136 46.445481 22.161310 -26.552017 1.517264 13.006214 9.166408 0.252582 5.691551 8.259472 -0.000002 -0.000000 -0.000003 -0.431282 -2.808701 -7.757848 0.689359 3.007856 -25.811358 0.000001 -0.000003 0.000001 0.136654 1.367783 -11.497255 0.846397 3.312493 -28.659446 0.000000 0.000000 0.000001 0.725823 3.833129 -13.410052 0.996848 3.573568 -31.164336 -0.000001 0.000000 0.000002 1.935229 8.409545 -14.001469 0.363715 -1.849615 -19.115160 -0.000000 -0.000003 0.000001 -0.000001 0.000000 -0.000000 3.581762 10.758602 -2.585541 -12.830447 2.720864 71.530105 0.000029 106.946856 -0.000020 40.304233 -11.764599 25.742257 -5.100325 -1.614323 -7.407030 8.566486 -10.593418 -7.325801 0.000001 0.000000 -0.000003 -1.283754 7.717495 9.412117 0.432914 -2.419461 20.286259 -0.000001 0.000000 0.000002 -0.839036 4.173460 10.297488 1.060891 -3.696649 32.015743 0.000001 -0.000000 -0.000001 1.810957 -6.497469 18.442684 0.695225 -3.035537 25.794326 0.000001 -0.000001 -0.000001 6.159503 -16.684363 21.217380 0.271062 -1.926183 16.019382 -0.000003 -0.000001 0.000004 0.000002 0.000002 -0.000002 0.000003 -0.000000 -0.000001 0.000003 0.000000 0.000001 0.000003 -0.000000 -0.000000 0.000003 -0.000000 -0.000000 0.000003 -0.000000 -0.000001 0.000003 0.000000 0.000001 0.000003 -0.000000 -0.000000 0.000003 -0.000000 -0.000000 0.000003 -0.000000 -0.000001 0.000003 0.000000 0.000001 -0.000000 0.000001 0.000000 -0.000000 0.000001 0.000000 -0.000000 0.000001 0.000000 
